<svg width="486" height="465" viewBox="0 0 486 465" fill="none" xmlns="http://www.w3.org/2000/svg">
<path fill-rule="evenodd" clip-rule="evenodd" d="M187.435 307.591C137.466 314.89 119.507 360.876 135.428 401.762C147.674 433.202 184.602 467.167 230.811 460.803C272.497 455.059 299.816 414.036 281.552 367.038C266.832 329.171 226.339 301.906 187.435 307.591H187.435ZM393.258 142.67C367.611 148.782 374.049 179.092 386.454 196.361C424.694 249.593 481.301 220.374 445.308 169.887C437.798 159.351 416.047 137.243 393.258 142.67ZM312.381 164.398C284.588 171.544 288.732 204.186 302.026 224.047C310.612 236.867 336.278 260.05 362.505 253.32C412.286 240.547 364.623 150.964 312.381 164.398ZM142.342 1.38856C87.7267 15.4421 147.566 100.457 203.94 87.6417C216.151 84.8667 225.626 76.0509 225.596 61.579C225.535 29.1022 177.442 -7.64195 142.342 1.38856ZM209.356 100.757C177.932 107.247 178.185 138.901 195.234 161.687C202.359 171.207 209.351 177.959 221.249 184.301C232.442 190.268 246.812 195.077 261.644 192.028C290.523 186.096 292.355 154.97 274.642 130.892C264.6 117.225 238 94.8449 209.355 100.758L209.356 100.757ZM284.546 246.781C224.306 259.948 268.029 358.831 328.93 347.315C357.706 341.878 365.071 309.061 349.69 281.737C340.069 264.639 314.681 240.195 284.546 246.781V246.781ZM355.706 355.371C326.399 361.139 316.588 393.749 330.41 423.518C339.173 442.403 363.57 469.509 394.015 463.05C422.799 456.94 430.002 423.309 418.021 394.688C410.14 375.88 385.027 349.594 355.705 355.371H355.706ZM282.597 43.2213C240.608 52.4275 259.229 113.279 304.71 138.34C357.627 167.501 395.606 130.147 356.192 77.7112C345.02 62.8411 313.979 36.3429 282.597 43.2213H282.597ZM171.452 181.536C138.956 186.888 126.776 217.297 144.505 247.867C155.062 266.073 182.771 289.782 216.033 284.904C247.727 280.256 260.939 247.926 242.776 218.493C231.818 200.731 204.675 176.064 171.452 181.537V181.536ZM404.221 250.907C368.605 257.553 368.692 298.087 384.677 327.771C394.57 346.133 423.885 376.91 456.501 370.69C490.226 364.259 491.222 322.266 475.189 293.971C461.689 270.139 432.92 245.552 404.222 250.907H404.221ZM47.0266 213.014C11.5969 217.738 -12.3458 250.339 6.74873 287.402C18.6143 310.424 51.6117 336.226 91.5383 329.559C125.557 323.874 149.996 292.935 130.901 255.413C118.48 231.011 86.406 207.756 47.0266 213.015V213.014ZM46.2124 52.0598C-0.461467 59.4878 -8.59275 102.369 18.295 138.069C34.9339 160.156 73.2439 187.639 117.759 180.882C164.384 173.801 174.059 130.338 146.73 94.7387C130.086 73.0597 90.6484 44.9831 46.2117 52.059L46.2124 52.0598Z" fill="url(#paint0_radial_22_20)"/>
<defs>
<radialGradient id="paint0_radial_22_20" cx="0" cy="0" r="1" gradientTransform="matrix(-290.832 -179.585 187.772 -304.124 446.466 259.832)" gradientUnits="userSpaceOnUse">
<stop stop-color="#00CC69"/>
<stop offset="1" stop-color="#028545"/>
</radialGradient>
</defs>
</svg>
